
<svg xmlns="http://www.w3.org/2000/svg" viewBox="0 303 728 197"><path fill="#000a3b" d="M218 354c0-34-36-51-79-51-45 0-87 21-102 52-5 8-7 18-7 27 0 8 2 16 7 23 6 9 18 16 35 16 21 0 38-12 38-32 0 0 0-6-6-6s-7 4-7 6c1 16-9 28-25 28-19 0-27-16-27-33 0-34 26-58 54-68 13-5 26-7 40-7 31 0 56 12 56 44 0 26-22 49-49 51l1-3c6-20 12-41 23-57l3-4-1-2-7 5c-51 39-53 152-121 152h-7c-15-3-22-12-22-25l1-9c0-3-3-7-7-7-6 0-9 5-9 12 0 20 14 32 37 34h8c53 0 86-40 100-89l21-5c24-7 52-23 52-52m508 11h-18l-5 10-7 17h-9l-2 6h9l-11 24c-8 17-20 34-27 34-2 0-3-1-3-3l2-7 9-18c4-8 10-20 10-26s-4-12-12-12-16 6-23 13l4-11h-17l-15 33c-5 11-17 31-24 31-2 0-3-1-3-3l2-4 9-22 15-35h-19l-15 34c-5 11-17 30-24 30-1 0-3-1-3-3l3-8 8-18 16-35h-19l-3 8c-3 5-8 12-15 12-4 0-6-2-7-3-1-12-8-19-20-19-15 0-26 10-34 21-5 8-8 16-11 25-7 11-14 20-19 20-2 0-3-1-3-3l3-8 12-26c4-8 6-13 6-19s-4-10-10-10c-9 0-19 6-27 14l1-4c0-6-3-10-10-10-8 0-17 5-24 14l5-12h-17l-15 33c-7 15-18 31-24 31-2 0-2-1-2-3l4-13 19-44c2-3-8-6-19-6-12 0-25 6-34 14-6 5-11 8-13 8l-2-1c0-3 7-10 7-16 0-3-2-5-5-5-7 0-15 7-21 14l5-12h-17l-15 33c-7 15-18 31-24 31-2 0-3 0-3-2 0-3 3-10 5-14l19-44c2-3-7-5-19-5-17 0-34 11-43 23a70 70 0 0 0-17 39c0 9 4 14 14 14s19-8 24-14l-1 4c0 6 2 10 10 10 7 0 16-5 23-14l-6 13h18l18-41c6-13 13-20 15-20l1 1c0 1-3 5-3 8s2 7 7 7c4 0 8-2 12-5-9 13-15 26-15 37-1 9 4 14 13 14 10 0 19-9 25-15l-1 4c0 6 4 11 11 11 8 0 14-5 22-14l-6 13h19l17-39c7-17 18-26 23-26l2 2v1l-1 5-25 57h19l18-40c7-17 16-25 22-25 2 0 3 1 3 3l-2 6-17 36-3 11c0 6 3 11 12 11 11 0 19-8 28-21v3c1 10 7 18 21 18 17 0 31-12 40-31 3-6 5-13 6-21 2 1 4 2 6 1 3 0 6 0 8-2l-3 7a561 561 0 0 0-13 34c0 7 4 12 11 12s18-7 26-18l-1 7c0 5 2 11 10 11 9 0 16-7 23-15l-6 13h19l16-34c8-20 17-31 25-31l2 2v1a458 458 0 0 0-21 53c0 6 3 11 11 11 11 0 22-11 28-19-2 4-2 8-2 12 0 11 6 16 15 16 6 0 12-2 18-5 7-5 12-13 17-20l-3-3c-4 7-10 13-15 16-3 3-6 4-9 4-4 0-7-2-7-7s3-12 6-21l10-23 9-20h13l2-6h-12zm-534 91c-2 0-4-1-4-5 0-9 8-26 17-39 7-9 16-15 25-15l-12 26c-9 20-18 33-26 33m117 0c-2 0-4-1-4-5 0-9 7-26 17-39 7-9 16-15 25-15l-12 26c-9 21-18 33-26 33m208-52c0 10-9 35-20 49-4 6-7 8-11 8s-5-4-5-9c1-9 9-31 20-46 5-6 8-9 12-9s4 3 4 7"/></svg>